<svg xmlns="http://www.w3.org/2000/svg" viewBox="0 0 400 80" enable-background="new 0 0 400 80"><g fill="#fff"><path d="M75.555-.01v23.824H58.748c-9.896-.295-11.36 2.327-4.39 7.867 12.476 10.49 18.598 20.685 18.367 30.583-.23 9.9-6.353 15.808-18.367 17.73H10V56.167h17.558c10.897.296 12.283-2.622 4.16-8.753-13.4-11.82-19.1-22.678-17.097-32.576C16.624 4.94 22.94-.01 33.566-.01h41.99zm-62.09 59.502v17.175h40.893C64.523 74.6 69.452 69.28 69.144 60.71c-.308-8.567-7.085-18.244-20.33-29.03-6.162-7.68-2.85-11.412 9.933-11.19H72.09V3.315H33.565c-8.01.148-13.053 4.248-15.133 12.3-2.08 8.05 3.427 17.913 16.52 29.583 9.702 9.16 7.238 13.925-7.394 14.294H13.465zM136.894 46.085l-8.78 33.906H100.97l-25.414-80h27.146l11.436 34.572 9.934-34.57h24.95l11.61 34.57 7.74-34.57h27.146l-20.908 80h-27.146l-10.57-33.907zm-56.95-42.77l23.913 73.352h21.6l9.127-33.85h4.736l10.8 33.85h21.95L191.3 3.315h-20.157l-8.548 34.57h-3.87l-12.072-34.57h-19.638l-10.396 34.57h-4.966l-11.436-34.57H79.945zM179.415 79.99l27.435-80h41.412l27.897 80h-31.537l-5.256-14.403H214.59l-5.256 14.404h-29.92zm4.852-3.323h22.757l5.37-14.404h29.746l5.43 14.404h23.853L246.01 3.315h-36.272l-25.47 73.352zm43.376-60.11l11.84 32.852h-24.605l12.765-32.854zm-7.335 29.528h13.746l-6.353-17.84-7.392 17.84zM277.342 79.99v-80h54.292c6.7.814 12.11 2.476 16.23 4.987 4.12 2.512 7.027 5.577 8.72 9.197 1.695 3.62 2.696 6.704 3.004 9.252.308 2.548.385 5.06.23 7.535-.153 2.476-.712 4.987-1.674 7.536-.963 2.548-3.562 5.448-7.797 8.698-4.236 3.25-9.82 5.374-16.75 6.37H307.49v26.428h-30.148zm3.466-3.323h23.22V50.24h29.57c6.547-1.293 11.553-3.324 15.018-6.094 3.465-2.77 5.776-6.002 6.93-9.695 1.156-3.692 1.406-7.182.752-10.47-.655-3.287-1.58-6.15-2.772-8.587-1.194-2.438-3.543-4.875-7.046-7.313-3.504-2.438-8.452-4.025-14.844-4.765H280.81v73.352zm25.24-58.117h23.334c1.04 0 2.31.582 3.812 1.745s2.387 3.573 2.657 7.23c-.153 3.804-.952 6.187-2.396 7.147s-2.782 1.44-4.014 1.44h-23.392V18.55zm3.58 3.214v11.302h17.848c.924 0 1.954-.305 3.09-.914 1.135-.61 1.742-2.17 1.82-4.68-.194-2.29-.877-3.814-2.05-4.572-1.176-.757-2.148-1.136-2.918-1.136h-17.79zM362.854-.01H390v80h-27.146v-80zm3.465 3.325v73.352h20.214V3.315H366.32z"/></g></svg>