<svg xmlns="http://www.w3.org/2000/svg" viewBox="0 0 800 80" enable-background="new 0 0 800 80"><g fill="#fff"><path d="M61.827 22.797H43.63c-8.857-.276-10.167 2.17-3.93 7.34 11.167 9.79 16.647 19.3 16.44 28.536-.207 9.236-5.686 14.75-16.44 16.542H0V52.987h15.715c9.753.276 10.993-2.447 3.722-8.168C7.444 33.79 2.343 23.66 4.137 14.422 5.926 5.187 11.58.57 21.09.57h40.736v22.227zM110.4 26.312V.57h24.297v74.646H110.4V48.334H90.86v26.88H66.564V.57H90.86v25.743h19.54zM142.538.57h24.296v74.646h-24.296V.57zM224.898 52.987V37.892h23.366v37.323H215.18c-8.1 0-15.423-1.44-21.97-4.316-6.548-2.878-11.71-7.195-15.482-12.95-3.774-5.755-5.66-12.803-5.66-21.143 0-5.86 1.127-11.088 3.385-15.69 2.257-4.6 5.384-8.425 9.383-11.475 3.998-3.05 8.59-5.325 13.777-6.824 5.186-1.5 10.71-2.25 16.568-2.25h33.085V22.8H224.9c-5.24 0-9.117.155-11.632.465-2.516.31-4.756.827-6.72 1.55-1.964.725-3.705 1.983-5.22 3.775-1.518 1.792-2.397 4.963-2.637 9.512.173 4.412 1.052 7.565 2.637 9.46 1.585 1.896 3.515 3.153 5.79 3.774 2.275.62 4.618 1.05 7.03 1.292 2.41.24 5.995.36 10.75.36zM256.154.57h24.296v74.646h-24.296V.57zM289.35 75.215V.57h24.296l16.335 31.016L346.214.57h24.296v74.646h-24.297V44.2L330.6 75.215h-1.343L313.645 44.2v31.016H289.35zM427.515 52.987h23.366v22.23h-33.083c-8.1 0-15.423-1.44-21.97-4.317-6.548-2.877-11.71-7.194-15.482-12.95-3.774-5.754-5.66-12.802-5.66-21.142 0-5.86 1.128-11.088 3.385-15.69 2.257-4.6 5.384-8.425 9.383-11.475 3.998-3.05 8.59-5.325 13.777-6.824 5.186-1.5 10.71-2.25 16.568-2.25h33.084V22.8h-23.366c-5.24 0-9.116.154-11.63.464-2.517.31-4.757.827-6.72 1.55-1.965.725-3.706 1.983-5.222 3.775-1.517 1.79-2.396 4.962-2.636 9.51.172 4.413 1.05 7.566 2.636 9.46 1.585 1.897 3.515 3.154 5.79 3.775 2.275.62 4.618 1.05 7.03 1.292 2.41.24 5.995.36 10.75.36zM457.688 75.215V.57h48.593c5.998.55 10.96 2.1 14.89 4.65 3.928 2.552 6.72 6.1 8.374 10.65 1.516 5.514 2.136 9.65 1.86 12.407-.275 2.757-.826 5.342-1.653 7.754-.826 2.414-3.1 5.205-6.823 8.375-3.722 3.17-8.685 5.22-14.888 6.152h-23.367v24.658h-26.985zm26.984-56.036v13.75h18.817c.998 0 2.084-.37 3.256-1.11 1.17-.742 1.792-2.612 1.86-5.61-.172-2.86-.87-4.747-2.093-5.66-1.224-.914-2.25-1.37-3.076-1.37h-18.765zM521.717 75.215V54.693h23.056v20.523h-23.056zM603.538 52.987h23.366v22.23H593.82c-8.1 0-15.423-1.44-21.97-4.317-6.55-2.877-11.71-7.194-15.482-12.95-3.774-5.754-5.66-12.802-5.66-21.142 0-5.86 1.127-11.088 3.385-15.69 2.257-4.6 5.385-8.425 9.383-11.475 3.997-3.05 8.59-5.325 13.777-6.824 5.186-1.5 10.71-2.25 16.568-2.25h33.085V22.8H603.54c-5.24 0-9.117.154-11.632.464-2.516.31-4.756.827-6.72 1.55-1.964.725-3.705 1.983-5.22 3.775-1.518 1.79-2.397 4.962-2.637 9.51.173 4.413 1.05 7.566 2.637 9.46 1.585 1.897 3.515 3.154 5.79 3.775 2.275.62 4.617 1.05 7.03 1.292 2.41.24 5.996.36 10.75.36zM714.72 38.306c0 8.168-1.707 15.13-5.12 20.885-3.41 5.757-8.348 10.08-14.81 12.976-6.46 2.895-14.173 4.342-23.132 4.342-8.96 0-16.655-1.456-23.082-4.368-6.428-2.912-11.295-7.22-14.604-12.924-3.308-5.703-4.963-12.673-4.963-20.91 0-6.237.946-11.726 2.842-16.465 1.895-4.737 4.67-8.727 8.323-11.966 3.653-3.24 8.133-5.695 13.44-7.366C658.924.836 664.938 0 671.658 0c8.926 0 16.628 1.473 23.107 4.42 6.478 2.947 11.424 7.29 14.836 13.027 3.413 5.738 5.12 12.69 5.12 20.86zm-59.19.206c0 4.79 1.075 8.96 3.23 12.51 2.154 3.55 6.4 5.325 12.743 5.325 4.893 0 8.555-.93 10.985-2.792s3.945-3.99 4.55-6.384c.602-2.394 1.007-5.28 1.214-8.658-.207-4.79-1.362-8.97-3.464-12.536-2.103-3.567-6.53-5.35-13.285-5.35-10.65 0-15.974 5.963-15.974 17.886zM718.84 75.215V.57h24.296l16.335 31.016L775.704.57H800v74.646h-24.296V44.2l-15.612 31.016h-1.344L743.136 44.2v31.016H718.84z"/></g></svg>